# xmcd
#
# Track frame offsets:
#	150
#	17621
#	30885
#	46172
#	61873
#	77012
#	89848
#	105167
#	116648
#	130825
#	143761
#	155461
#
# Disc length: 2254 seconds
#
# Revision: 0
# Processed by: cddbd v1.5.1PL2 Copyright (c) Steve Scherf et al.
# Submitted via: dBpowerAMP V4.0
#
DISCID=8908cc0c
DTITLE=Mertens Théo - Comme Avant
DYEAR=1998
DGENRE=Blues
TTITLE0=Avec un violon sur le toit
TTITLE1=Tu as raison d'y croire
TTITLE2=Si le Blues n'existait pas
TTITLE3=Prière pour un jour de mariage (P. Biron, T. Mertens)
TTITLE4=Ouvrez vos mains (G. Thomas, N. Colombier)
TTITLE5=Myriam Maryam Maria
TTITLE6=Les Poètes
TTITLE7=Le Marché de Todos Santos
TTITLE8=La Marette
TTITLE9=Faire équipe avec Toi
TTITLE10=Ceux qui s'aiment
TTITLE11=Une maison dans la rangée
EXTD=
EXTT0=
EXTT1=
EXTT2=
EXTT3=
EXTT4=
EXTT5=
EXTT6=
EXTT7=
EXTT8=
EXTT9=
EXTT10=
EXTT11=
PLAYORDER=
